<?xml version="1.0" encoding="ISO-8859-1" standalone="no"?><!DOCTYPE svg PUBLIC "-//W3C//DTD SVG 1.1//EN" "http://www.w3.org/Graphics/SVG/1.1/DTD/svg11.dtd"><svg version="1.1" baseProfile="full" id="body" width="8in" height="8in" viewBox="0 0 1 1" preserveAspectRatio="none" xmlns="http://www.w3.org/2000/svg" xmlns:xlink="http://www.w3.org/1999/xlink" xmlns:ev="http://www.w3.org/2001/xml-events"><title>SVG drawing</title><desc>This was produced by version 4.4 of GNU libplot, a free library for exporting 2-D vector graphics.</desc><rect id="background" x="0" y="0" width="1" height="1" stroke="none" fill="white"/><g id="content" transform="translate(0.26346,0.34135) scale(1,-1) scale(0.11538) " xml:space="preserve" stroke="black" stroke-linecap="butt" stroke-linejoin="miter" stroke-miterlimit="10.433" stroke-dasharray="none" stroke-dashoffset="0" stroke-opacity="1" fill="none" fill-rule="evenodd" fill-opacity="1" font-style="normal" font-variant="normal" font-weight="normal" font-stretch="normal" font-size-adjust="none" letter-spacing="normal" word-spacing="normal" text-anchor="start"><rect x="0" y="-0.25" width="1.3" height="0.5" stroke-width="0.010196" /><text transform="translate(0.25699,-0.053113) scale(1,-1) scale(0.0075231) " font-family="Helvetica,sans-serif" font-size="20px" stroke="none" fill="black" >Calvin base</text><rect x="2.05" y="-0.25" width="1.3" height="0.5" stroke-width="0.010196" /><text transform="translate(2.211,-0.053113) scale(1,-1) scale(0.0075231) " font-family="Helvetica,sans-serif" font-size="20px" stroke="none" fill="black" >Calvin minimal</text><line x1="0.65" y1="-0.25" x2="0.65" y2="-0.25" stroke-width="0.010196" stroke-dasharray="0.05, 0.05"/><line x1="0.6" y1="-0.25" x2="0.7" y2="-0.25" stroke-width="0.010196" /><polyline points="0.71,-0.5 1.21,-0.5 1.21,-0.75 0.71,-0.75 " stroke-width="0.010196" /><polygon points="0.81,-0.775 0.71,-0.75 0.81,-0.725 " stroke-width="0.010196" fill="black" /><text transform="translate(0.71,-0.40728) scale(1,-1) scale(0.0075231) " font-family="Helvetica,sans-serif" font-size="20px" stroke="none" fill="black" >S = serialize_actor()</text><text transform="translate(0.68909,-0.58784) scale(1,-1) scale(0.0075231) " font-family="Helvetica,sans-serif" font-size="20px" stroke="none" fill="black" > </text><text transform="translate(0.68909,-0.76839) scale(1,-1) scale(0.0075231) " font-family="Helvetica,sans-serif" font-size="20px" stroke="none" fill="black" > </text><text transform="translate(0.68909,-0.94895) scale(1,-1) scale(0.0075231) " font-family="Helvetica,sans-serif" font-size="20px" stroke="none" fill="black" > </text><line x1="0.71" y1="-1" x2="2.64" y2="-1" stroke-width="0.010196" /><polygon points="2.54,-0.975 2.64,-1 2.54,-1.025 " stroke-width="0.010196" fill="black" /><text transform="translate(1.0941,-0.96284) scale(1,-1) scale(0.0075231) " font-family="Helvetica,sans-serif" font-size="20px" stroke="none" fill="black" >ACTOR_NEW(S)</text><text transform="translate(1.6541,-1.1434) scale(1,-1) scale(0.0075231) " font-family="Helvetica,sans-serif" font-size="20px" stroke="none" fill="black" > </text><line x1="2.7" y1="-0.25" x2="2.7" y2="-1" stroke-width="0.010196" stroke-dasharray="0.05, 0.05"/><line x1="2.65" y1="-1" x2="2.75" y2="-1" stroke-width="0.010196" /><line x1="2.64" y1="-1.25" x2="0.71" y2="-1.25" stroke-width="0.010196" stroke-dasharray="0.05, 0.05"/><polygon points="0.81,-1.275 0.71,-1.25 0.81,-1.225 " stroke-width="0.010196" fill="black" /><text transform="translate(1.4283,-1.2128) scale(1,-1) scale(0.0075231) " font-family="Helvetica,sans-serif" font-size="20px" stroke="none" fill="black" >REPLY</text><text transform="translate(1.6541,-1.3934) scale(1,-1) scale(0.0075231) " font-family="Helvetica,sans-serif" font-size="20px" stroke="none" fill="black" > </text><line x1="0.6" y1="-0.25" x2="0.6" y2="-1.25" stroke-width="0.010196" /><line x1="0.7" y1="-0.25" x2="0.7" y2="-1.25" stroke-width="0.010196" /><line x1="0.6" y1="-1.25" x2="0.7" y2="-1.25" stroke-width="0.010196" /><polyline points="2.76,-1.5 3.26,-1.5 3.26,-1.75 2.76,-1.75 " stroke-width="0.010196" /><polygon points="2.86,-1.775 2.76,-1.75 2.86,-1.725 " stroke-width="0.010196" fill="black" /><text transform="translate(2.76,-1.4073) scale(1,-1) scale(0.0075231) " font-family="Helvetica,sans-serif" font-size="20px" stroke="none" fill="black" >create_actor(S)</text><text transform="translate(2.7391,-1.5878) scale(1,-1) scale(0.0075231) " font-family="Helvetica,sans-serif" font-size="20px" stroke="none" fill="black" > </text><text transform="translate(2.7391,-1.7684) scale(1,-1) scale(0.0075231) " font-family="Helvetica,sans-serif" font-size="20px" stroke="none" fill="black" > </text><text transform="translate(2.7391,-1.9489) scale(1,-1) scale(0.0075231) " font-family="Helvetica,sans-serif" font-size="20px" stroke="none" fill="black" > </text><polyline points="2.76,-2 3.26,-2 3.26,-2.25 2.76,-2.25 " stroke-width="0.010196" /><polygon points="2.86,-2.275 2.76,-2.25 2.86,-2.225 " stroke-width="0.010196" fill="black" /><text transform="translate(2.76,-1.9073) scale(1,-1) scale(0.0075231) " font-family="Helvetica,sans-serif" font-size="20px" stroke="none" fill="black" >reconnect_ports(P)</text><text transform="translate(2.7391,-2.0878) scale(1,-1) scale(0.0075231) " font-family="Helvetica,sans-serif" font-size="20px" stroke="none" fill="black" > </text><text transform="translate(2.7391,-2.2684) scale(1,-1) scale(0.0075231) " font-family="Helvetica,sans-serif" font-size="20px" stroke="none" fill="black" > </text><text transform="translate(2.7391,-2.4489) scale(1,-1) scale(0.0075231) " font-family="Helvetica,sans-serif" font-size="20px" stroke="none" fill="black" > </text><line x1="2.64" y1="-2.5" x2="0.71" y2="-2.5" stroke-width="0.010196" /><polygon points="0.81,-2.525 0.71,-2.5 0.81,-2.475 " stroke-width="0.010196" fill="black" /><text transform="translate(0.95195,-2.4628) scale(1,-1) scale(0.0075231) " font-family="Helvetica,sans-serif" font-size="20px" stroke="none" fill="black" >PORT_CONNECT(P)</text><text transform="translate(1.6541,-2.6434) scale(1,-1) scale(0.0075231) " font-family="Helvetica,sans-serif" font-size="20px" stroke="none" fill="black" > </text><line x1="0.65" y1="-1.25" x2="0.65" y2="-2.5" stroke-width="0.010196" stroke-dasharray="0.05, 0.05"/><line x1="0.6" y1="-2.5" x2="0.7" y2="-2.5" stroke-width="0.010196" /><line x1="0.71" y1="-2.75" x2="2.64" y2="-2.75" stroke-width="0.010196" stroke-dasharray="0.05, 0.05"/><polygon points="2.54,-2.725 2.64,-2.75 2.54,-2.775 " stroke-width="0.010196" fill="black" /><text transform="translate(1.4283,-2.7128) scale(1,-1) scale(0.0075231) " font-family="Helvetica,sans-serif" font-size="20px" stroke="none" fill="black" >REPLY</text><text transform="translate(1.6541,-2.8934) scale(1,-1) scale(0.0075231) " font-family="Helvetica,sans-serif" font-size="20px" stroke="none" fill="black" > </text><line x1="0.6" y1="-2.5" x2="0.6" y2="-3" stroke-width="0.010196" /><line x1="0.7" y1="-2.5" x2="0.7" y2="-3" stroke-width="0.010196" /><line x1="0.6" y1="-3" x2="0.7" y2="-3" stroke-width="0.010196" /><line x1="2.65" y1="-1" x2="2.65" y2="-3" stroke-width="0.010196" /><line x1="2.75" y1="-1" x2="2.75" y2="-3" stroke-width="0.010196" /><line x1="2.65" y1="-3" x2="2.75" y2="-3" stroke-width="0.010196" /></g></svg>