<?xml version="1.0" encoding="ISO-8859-1" standalone="no"?><!DOCTYPE svg PUBLIC "-//W3C//DTD SVG 1.1//EN" "http://www.w3.org/Graphics/SVG/1.1/DTD/svg11.dtd"><svg version="1.1" baseProfile="full" id="body" width="8in" height="8in" viewBox="0 0 1 1" preserveAspectRatio="none" xmlns="http://www.w3.org/2000/svg" xmlns:xlink="http://www.w3.org/1999/xlink" xmlns:ev="http://www.w3.org/2001/xml-events"><title>SVG drawing</title><desc>This was produced by version 4.4 of GNU libplot, a free library for exporting 2-D vector graphics.</desc><rect id="background" x="0" y="0" width="1" height="1" stroke="none" fill="white"/><g id="content" transform="translate(0.2375,0.35938) scale(1,-1) scale(0.125) " xml:space="preserve" stroke="black" stroke-linecap="butt" stroke-linejoin="miter" stroke-miterlimit="10.433" stroke-dasharray="none" stroke-dashoffset="0" stroke-opacity="1" fill="none" fill-rule="evenodd" fill-opacity="1" font-style="normal" font-variant="normal" font-weight="normal" font-stretch="normal" font-size-adjust="none" letter-spacing="normal" word-spacing="normal" text-anchor="start"><rect x="0" y="-0.25" width="1.3" height="0.5" stroke-width="0.0094118" /><text transform="translate(0.30264,-0.049028) scale(1,-1) scale(0.0069444) " font-family="Helvetica,sans-serif" font-size="20px" stroke="none" fill="black" >calvin base</text><rect x="2.05" y="-0.25" width="1.3" height="0.5" stroke-width="0.0094118" /><text transform="translate(2.264,-0.049028) scale(1,-1) scale(0.0069444) " font-family="Helvetica,sans-serif" font-size="20px" stroke="none" fill="black" >calvin minimal</text><line x1="2.7" y1="-0.25" x2="2.7" y2="-0.25" stroke-width="0.0094118" stroke-dasharray="0.05, 0.05"/><line x1="2.65" y1="-0.25" x2="2.75" y2="-0.25" stroke-width="0.0094118" /><line x1="2.64" y1="-0.5" x2="0.71" y2="-0.5" stroke-width="0.0094118" /><polygon points="0.81,-0.525 0.71,-0.5 0.81,-0.475 " stroke-width="0.0094118" fill="black" /><text transform="translate(0.91486,-0.46569) scale(1,-1) scale(0.0069444) " font-family="Helvetica,sans-serif" font-size="20px" stroke="none" fill="black" >TUNNEL_DATA/TOKEN</text><text transform="translate(1.6557,-0.63236) scale(1,-1) scale(0.0069444) " font-family="Helvetica,sans-serif" font-size="20px" stroke="none" fill="black" > </text><line x1="0.65" y1="-0.25" x2="0.65" y2="-0.5" stroke-width="0.0094118" stroke-dasharray="0.05, 0.05"/><line x1="0.6" y1="-0.5" x2="0.7" y2="-0.5" stroke-width="0.0094118" /><line x1="0.71" y1="-0.75" x2="2.64" y2="-0.75" stroke-width="0.0094118" stroke-dasharray="0.05, 0.05"/><polygon points="2.54,-0.725 2.64,-0.75 2.54,-0.775 " stroke-width="0.0094118" fill="black" /><text transform="translate(0.45951,-0.71569) scale(1,-1) scale(0.0069444) " font-family="Helvetica,sans-serif" font-size="20px" stroke="none" fill="black" >TUNNEL_DATA/TOKEN_REPLY(ACK)</text><text transform="translate(1.6557,-0.88236) scale(1,-1) scale(0.0069444) " font-family="Helvetica,sans-serif" font-size="20px" stroke="none" fill="black" > </text><line x1="2.64" y1="-1" x2="0.71" y2="-1" stroke-width="0.0094118" /><polygon points="0.81,-1.025 0.71,-1 0.81,-0.975 " stroke-width="0.0094118" fill="black" /><text transform="translate(0.91486,-0.96569) scale(1,-1) scale(0.0069444) " font-family="Helvetica,sans-serif" font-size="20px" stroke="none" fill="black" >TUNNEL_DATA/TOKEN</text><text transform="translate(1.6557,-1.1324) scale(1,-1) scale(0.0069444) " font-family="Helvetica,sans-serif" font-size="20px" stroke="none" fill="black" > </text><line x1="0.71" y1="-1.25" x2="2.64" y2="-1.25" stroke-width="0.0094118" stroke-dasharray="0.05, 0.05"/><polygon points="2.54,-1.225 2.64,-1.25 2.54,-1.275 " stroke-width="0.0094118" fill="black" /><text transform="translate(0.40938,-1.2157) scale(1,-1) scale(0.0069444) " font-family="Helvetica,sans-serif" font-size="20px" stroke="none" fill="black" >TUNNEL_DATA/TOKEN_REPLY(NACK)</text><text transform="translate(1.6557,-1.3824) scale(1,-1) scale(0.0069444) " font-family="Helvetica,sans-serif" font-size="20px" stroke="none" fill="black" > </text><line x1="2.7" y1="-1.25" x2="3.2" y2="-1.05" stroke-width="0.0094118" stroke-dasharray="0.05, 0.05"/><text transform="translate(3.4222,-1.099) scale(1,-1) scale(0.0069444) " font-family="Helvetica,sans-serif" font-size="20px" stroke="none" fill="black" >Problem!</text><polygon points="3.2,-0.9 4.1,-0.9 4.2,-1 4.2,-1.2 3.2,-1.2 " stroke-width="0.0094118" /><polyline points="4.1,-0.9 4.1,-1 4.2,-1 " stroke-width="0.0094118" /><line x1="0.6" y1="-0.5" x2="0.6" y2="-1.25" stroke-width="0.0094118" /><line x1="0.7" y1="-0.5" x2="0.7" y2="-1.25" stroke-width="0.0094118" /><line x1="0.6" y1="-1.25" x2="0.7" y2="-1.25" stroke-width="0.0094118" /><polyline points="2.76,-1.5 3.26,-1.5 3.26,-1.75 2.76,-1.75 " stroke-width="0.0094118" /><polygon points="2.86,-1.775 2.76,-1.75 2.86,-1.725 " stroke-width="0.0094118" fill="black" /><text transform="translate(2.76,-1.424) scale(1,-1) scale(0.0069444) " font-family="Helvetica,sans-serif" font-size="20px" stroke="none" fill="black" >resend_token()</text><text transform="translate(2.7407,-1.5907) scale(1,-1) scale(0.0069444) " font-family="Helvetica,sans-serif" font-size="20px" stroke="none" fill="black" > </text><text transform="translate(2.7407,-1.7574) scale(1,-1) scale(0.0069444) " font-family="Helvetica,sans-serif" font-size="20px" stroke="none" fill="black" > </text><text transform="translate(2.7407,-1.924) scale(1,-1) scale(0.0069444) " font-family="Helvetica,sans-serif" font-size="20px" stroke="none" fill="black" > </text><line x1="2.64" y1="-2" x2="0.71" y2="-2" stroke-width="0.0094118" /><polygon points="0.81,-2.025 0.71,-2 0.81,-1.975 " stroke-width="0.0094118" fill="black" /><text transform="translate(0.91486,-1.9657) scale(1,-1) scale(0.0069444) " font-family="Helvetica,sans-serif" font-size="20px" stroke="none" fill="black" >TUNNEL_DATA/TOKEN</text><text transform="translate(1.6557,-2.1324) scale(1,-1) scale(0.0069444) " font-family="Helvetica,sans-serif" font-size="20px" stroke="none" fill="black" > </text><line x1="0.65" y1="-1.25" x2="0.65" y2="-2" stroke-width="0.0094118" stroke-dasharray="0.05, 0.05"/><line x1="0.6" y1="-2" x2="0.7" y2="-2" stroke-width="0.0094118" /><line x1="0.71" y1="-2.25" x2="2.64" y2="-2.25" stroke-width="0.0094118" stroke-dasharray="0.05, 0.05"/><polygon points="2.54,-2.225 2.64,-2.25 2.54,-2.275 " stroke-width="0.0094118" fill="black" /><text transform="translate(0.45951,-2.2157) scale(1,-1) scale(0.0069444) " font-family="Helvetica,sans-serif" font-size="20px" stroke="none" fill="black" >TUNNEL_DATA/TOKEN_REPLY(ACK)</text><text transform="translate(1.6557,-2.3824) scale(1,-1) scale(0.0069444) " font-family="Helvetica,sans-serif" font-size="20px" stroke="none" fill="black" > </text><line x1="0.6" y1="-2" x2="0.6" y2="-2.5" stroke-width="0.0094118" /><line x1="0.7" y1="-2" x2="0.7" y2="-2.5" stroke-width="0.0094118" /><line x1="0.6" y1="-2.5" x2="0.7" y2="-2.5" stroke-width="0.0094118" /><line x1="2.65" y1="-0.25" x2="2.65" y2="-2.5" stroke-width="0.0094118" /><line x1="2.75" y1="-0.25" x2="2.75" y2="-2.5" stroke-width="0.0094118" /><line x1="2.65" y1="-2.5" x2="2.75" y2="-2.5" stroke-width="0.0094118" /></g></svg>