<?xml version="1.0" encoding="ISO-8859-1" standalone="no"?><!DOCTYPE svg PUBLIC "-//W3C//DTD SVG 1.1//EN" "http://www.w3.org/Graphics/SVG/1.1/DTD/svg11.dtd"><svg version="1.1" baseProfile="full" id="body" width="8in" height="8in" viewBox="0 0 1 1" preserveAspectRatio="none" xmlns="http://www.w3.org/2000/svg" xmlns:xlink="http://www.w3.org/1999/xlink" xmlns:ev="http://www.w3.org/2001/xml-events"><title>SVG drawing</title><desc>This was produced by version 4.4 of GNU libplot, a free library for exporting 2-D vector graphics.</desc><rect id="background" x="0" y="0" width="1" height="1" stroke="none" fill="white"/><g id="content" transform="translate(0.295,0.4625) scale(1,-1) scale(0.1) " xml:space="preserve" stroke="black" stroke-linecap="butt" stroke-linejoin="miter" stroke-miterlimit="10.433" stroke-dasharray="none" stroke-dashoffset="0" stroke-opacity="1" fill="none" fill-rule="evenodd" fill-opacity="1" font-style="normal" font-variant="normal" font-weight="normal" font-stretch="normal" font-size-adjust="none" letter-spacing="normal" word-spacing="normal" text-anchor="start"><rect x="0" y="-0.25" width="1.3" height="0.5" stroke-width="0.011765" /><text transform="translate(0.2158,-0.061285) scale(1,-1) scale(0.0086806) " font-family="Helvetica,sans-serif" font-size="20px" stroke="none" fill="black" >calvin base</text><rect x="2.05" y="-0.25" width="1.3" height="0.5" stroke-width="0.011765" /><text transform="translate(2.155,-0.061285) scale(1,-1) scale(0.0086806) " font-family="Helvetica,sans-serif" font-size="20px" stroke="none" fill="black" >calvin minimal</text><line x1="2.7" y1="-0.25" x2="2.7" y2="-0.25" stroke-width="0.011765" stroke-dasharray="0.05, 0.05"/><line x1="2.65" y1="-0.25" x2="2.75" y2="-0.25" stroke-width="0.011765" /><line x1="2.64" y1="-0.5" x2="0.71" y2="-0.5" stroke-width="0.011765" /><polygon points="0.81,-0.525 0.71,-0.5 0.81,-0.475 " stroke-width="0.011765" fill="black" /><text transform="translate(1.077,-0.45712) scale(1,-1) scale(0.0086806) " font-family="Helvetica,sans-serif" font-size="20px" stroke="none" fill="black" >TUNNEL_NEW</text><text transform="translate(1.6509,-0.66545) scale(1,-1) scale(0.0086806) " font-family="Helvetica,sans-serif" font-size="20px" stroke="none" fill="black" > </text><line x1="0.65" y1="-0.25" x2="0.65" y2="-0.5" stroke-width="0.011765" stroke-dasharray="0.05, 0.05"/><line x1="0.6" y1="-0.5" x2="0.7" y2="-0.5" stroke-width="0.011765" /><line x1="0.71" y1="-0.75" x2="2.64" y2="-0.75" stroke-width="0.011765" stroke-dasharray="0.05, 0.05"/><polygon points="2.54,-0.725 2.64,-0.75 2.54,-0.775 " stroke-width="0.011765" fill="black" /><text transform="translate(1.3904,-0.70712) scale(1,-1) scale(0.0086806) " font-family="Helvetica,sans-serif" font-size="20px" stroke="none" fill="black" >REPLY</text><text transform="translate(1.6509,-0.91545) scale(1,-1) scale(0.0086806) " font-family="Helvetica,sans-serif" font-size="20px" stroke="none" fill="black" > </text><line x1="0.6" y1="-0.5" x2="0.6" y2="-1" stroke-width="0.011765" /><line x1="0.7" y1="-0.5" x2="0.7" y2="-1" stroke-width="0.011765" /><line x1="0.6" y1="-1" x2="0.7" y2="-1" stroke-width="0.011765" /><line x1="2.65" y1="-0.25" x2="2.65" y2="-1" stroke-width="0.011765" /><line x1="2.75" y1="-0.25" x2="2.75" y2="-1" stroke-width="0.011765" /><line x1="2.65" y1="-1" x2="2.75" y2="-1" stroke-width="0.011765" /></g></svg>